<svg width="30" height="29" viewBox="0 0 30 29" fill="none" xmlns="http://www.w3.org/2000/svg">
<path d="M15.0061 7.8127C11.0311 7.8127 7.8248 11.0189 7.8248 14.9939C7.8248 18.9689 11.0311 22.1752 15.0061 22.1752C18.9811 22.1752 22.1873 18.9689 22.1873 14.9939C22.1873 11.0189 18.9811 7.8127 15.0061 7.8127ZM15.0061 19.6627C12.4373 19.6627 10.3373 17.5689 10.3373 14.9939C10.3373 12.4189 12.4311 10.3252 15.0061 10.3252C17.5811 10.3252 19.6748 12.4189 19.6748 14.9939C19.6748 17.5689 17.5748 19.6627 15.0061 19.6627ZM24.1561 7.51895C24.1561 8.4502 23.4061 9.19395 22.4811 9.19395C21.5498 9.19395 20.8061 8.44395 20.8061 7.51895C20.8061 6.59395 21.5561 5.84395 22.4811 5.84395C23.4061 5.84395 24.1561 6.59395 24.1561 7.51895ZM28.9123 9.21895C28.8061 6.9752 28.2936 4.9877 26.6498 3.3502C25.0123 1.7127 23.0248 1.2002 20.7811 1.0877C18.4686 0.956445 11.5373 0.956445 9.2248 1.0877C6.9873 1.19395 4.9998 1.70645 3.35605 3.34395C1.7123 4.98145 1.20605 6.96895 1.09355 9.2127C0.962305 11.5252 0.962305 18.4564 1.09355 20.7689C1.1998 23.0127 1.7123 25.0002 3.35605 26.6377C4.9998 28.2752 6.98105 28.7877 9.2248 28.9002C11.5373 29.0314 18.4686 29.0314 20.7811 28.9002C23.0248 28.7939 25.0123 28.2814 26.6498 26.6377C28.2873 25.0002 28.7998 23.0127 28.9123 20.7689C29.0436 18.4564 29.0436 11.5314 28.9123 9.21895ZM25.9248 23.2502C25.4373 24.4752 24.4936 25.4189 23.2623 25.9127C21.4186 26.6439 17.0436 26.4752 15.0061 26.4752C12.9686 26.4752 8.5873 26.6377 6.7498 25.9127C5.5248 25.4252 4.58105 24.4814 4.0873 23.2502C3.35605 21.4064 3.5248 17.0314 3.5248 14.9939C3.5248 12.9564 3.3623 8.5752 4.0873 6.7377C4.5748 5.5127 5.51855 4.56895 6.7498 4.0752C8.59355 3.34395 12.9686 3.5127 15.0061 3.5127C17.0436 3.5127 21.4248 3.35019 23.2623 4.0752C24.4873 4.5627 25.4311 5.50644 25.9248 6.7377C26.6561 8.58145 26.4873 12.9564 26.4873 14.9939C26.4873 17.0314 26.6561 21.4127 25.9248 23.2502Z" fill="white"/>
</svg>
