<svg width="32" height="22" viewBox="0 0 32 22" fill="none" xmlns="http://www.w3.org/2000/svg">
<path d="M30.5364 3.67095C30.1874 2.35706 29.1593 1.32229 27.8539 0.971119C25.4878 0.333008 16 0.333008 16 0.333008C16 0.333008 6.5122 0.333008 4.14603 0.971119C2.84065 1.32234 1.81253 2.35706 1.46359 3.67095C0.82959 6.05245 0.82959 11.0212 0.82959 11.0212C0.82959 11.0212 0.82959 15.99 1.46359 18.3715C1.81253 19.6854 2.84065 20.6771 4.14603 21.0282C6.5122 21.6663 16 21.6663 16 21.6663C16 21.6663 25.4878 21.6663 27.8539 21.0282C29.1593 20.6771 30.1874 19.6854 30.5364 18.3715C31.1704 15.99 31.1704 11.0212 31.1704 11.0212C31.1704 11.0212 31.1704 6.05245 30.5364 3.67095ZM12.8969 15.5325V6.50995L20.8269 11.0213L12.8969 15.5325Z" fill="white"/>
</svg>
